# xmcd CD database file
#
# Track frame offsets:
#	150
#	18777
#	33839
#	50745
#	68875
#	87241
#	101317
#	122614
#	142400
#	157250
#	177104
#	193055
#	209785
#	228288
#	249496
#	271555
#
# Disc length: 3840 seconds
#
# Revision: 2
# Processed by: cddbd v1.5.2PL0 Copyright (c) Steve Scherf et al.
# Submitted via: CDex 1.70beta2
#
DISCID=df0efe10
DTITLE=五輪真弓 - 五輪真弓 ゴールデン☆ベスト デラックス－コンプリート・シングルコレクション－ Disc 2
DYEAR=2009
DGENRE=J-POPS
TTITLE0=恋人よ
TTITLE1=運命
TTITLE2=リバイバル
TTITLE3=ジグソーパズル
TTITLE4=問わず煙草
TTITLE5=抱きしめて（愛は夢のように）
TTITLE6=真夜中のラブソング
TTITLE7=時計
TTITLE8=野性の涙（ＮＨＫ銀河小説「今ぞ恋しき」主題歌）
TTITLE9=他人がえり
TTITLE10=ジェラシー
TTITLE11=熱いさよなら（ＴＢＳ系「ザ・サスペンス」テーマ）
TTITLE12=密会
TTITLE13=空
TTITLE14=時の流れに～鳥になれ～（カメリアダイヤモンドＣＭソング）
TTITLE15=泣かないで（カメリアダイヤモンドＣＭソング）
EXTD=YEAR: 2009
EXTT0=
EXTT1=
EXTT2=
EXTT3=
EXTT4=
EXTT5=
EXTT6=
EXTT7=
EXTT8=
EXTT9=
EXTT10=
EXTT11=
EXTT12=
EXTT13=
EXTT14=
EXTT15=
PLAYORDER=
